<mxfile host="app.diagrams.net" modified="2021-05-01T03:52:13.693Z" agent="5.0 (Windows NT 10.0; Win64; x64) AppleWebKit/537.36 (KHTML, like Gecko) Chrome/90.0.4430.93 Safari/537.36" etag="blHpS6o55vlURNp9ZDDh" version="14.6.6" type="github">
  <diagram id="gSYyNqRnGWI2TPrJgrtZ" name="第 1 页">
    <mxGraphModel dx="1502" dy="1844" grid="1" gridSize="10" guides="1" tooltips="1" connect="1" arrows="1" fold="1" page="1" pageScale="1" pageWidth="827" pageHeight="1169" math="0" shadow="0">
      <root>
        <mxCell id="0" />
        <mxCell id="1" parent="0" />
        <mxCell id="STchm8m0HPpIuNh_q-wR-9" style="edgeStyle=orthogonalEdgeStyle;rounded=0;orthogonalLoop=1;jettySize=auto;html=1;" edge="1" parent="1" source="STchm8m0HPpIuNh_q-wR-2" target="STchm8m0HPpIuNh_q-wR-7">
          <mxGeometry relative="1" as="geometry" />
        </mxCell>
        <mxCell id="STchm8m0HPpIuNh_q-wR-2" value="jul" style="rounded=1;whiteSpace=wrap;html=1;fillColor=#f8cecc;strokeColor=#b85450;" vertex="1" parent="1">
          <mxGeometry x="90" y="80" width="80" height="40" as="geometry" />
        </mxCell>
        <mxCell id="STchm8m0HPpIuNh_q-wR-17" style="edgeStyle=orthogonalEdgeStyle;rounded=0;orthogonalLoop=1;jettySize=auto;html=1;" edge="1" parent="1" source="STchm8m0HPpIuNh_q-wR-3" target="STchm8m0HPpIuNh_q-wR-14">
          <mxGeometry relative="1" as="geometry" />
        </mxCell>
        <mxCell id="STchm8m0HPpIuNh_q-wR-32" value="" style="edgeStyle=orthogonalEdgeStyle;rounded=0;orthogonalLoop=1;jettySize=auto;html=1;fillColor=#d5e8d4;strokeColor=#82b366;" edge="1" parent="1" source="STchm8m0HPpIuNh_q-wR-3" target="STchm8m0HPpIuNh_q-wR-20">
          <mxGeometry relative="1" as="geometry" />
        </mxCell>
        <mxCell id="STchm8m0HPpIuNh_q-wR-3" value="jcl 抽象的" style="rounded=1;whiteSpace=wrap;html=1;fillColor=#d5e8d4;strokeColor=#82b366;" vertex="1" parent="1">
          <mxGeometry x="400" y="80" width="80" height="40" as="geometry" />
        </mxCell>
        <mxCell id="STchm8m0HPpIuNh_q-wR-11" style="edgeStyle=orthogonalEdgeStyle;rounded=0;orthogonalLoop=1;jettySize=auto;html=1;" edge="1" parent="1" source="STchm8m0HPpIuNh_q-wR-5" target="STchm8m0HPpIuNh_q-wR-8">
          <mxGeometry relative="1" as="geometry" />
        </mxCell>
        <mxCell id="STchm8m0HPpIuNh_q-wR-5" value="log4j" style="rounded=1;whiteSpace=wrap;html=1;fillColor=#dae8fc;strokeColor=#6c8ebf;" vertex="1" parent="1">
          <mxGeometry x="230" y="80" width="80" height="40" as="geometry" />
        </mxCell>
        <mxCell id="STchm8m0HPpIuNh_q-wR-7" value="log日志" style="rounded=1;whiteSpace=wrap;html=1;fillColor=#fff2cc;strokeColor=#d6b656;" vertex="1" parent="1">
          <mxGeometry x="90" y="220" width="80" height="40" as="geometry" />
        </mxCell>
        <mxCell id="STchm8m0HPpIuNh_q-wR-8" value="log日志" style="rounded=1;whiteSpace=wrap;html=1;fillColor=#fff2cc;strokeColor=#d6b656;" vertex="1" parent="1">
          <mxGeometry x="230" y="220" width="80" height="40" as="geometry" />
        </mxCell>
        <mxCell id="STchm8m0HPpIuNh_q-wR-10" value="直接记录日志" style="text;html=1;align=center;verticalAlign=middle;resizable=0;points=[];autosize=1;strokeColor=none;" vertex="1" parent="1">
          <mxGeometry x="75" y="170" width="90" height="20" as="geometry" />
        </mxCell>
        <mxCell id="STchm8m0HPpIuNh_q-wR-12" value="直接记录日志" style="text;html=1;align=center;verticalAlign=middle;resizable=0;points=[];autosize=1;strokeColor=none;" vertex="1" parent="1">
          <mxGeometry x="220" y="170" width="90" height="20" as="geometry" />
        </mxCell>
        <mxCell id="STchm8m0HPpIuNh_q-wR-28" style="edgeStyle=orthogonalEdgeStyle;rounded=0;orthogonalLoop=1;jettySize=auto;html=1;" edge="1" parent="1" source="STchm8m0HPpIuNh_q-wR-14" target="STchm8m0HPpIuNh_q-wR-27">
          <mxGeometry relative="1" as="geometry" />
        </mxCell>
        <mxCell id="STchm8m0HPpIuNh_q-wR-29" value="log4j" style="edgeLabel;html=1;align=center;verticalAlign=middle;resizable=0;points=[];" vertex="1" connectable="0" parent="STchm8m0HPpIuNh_q-wR-28">
          <mxGeometry x="-0.2089" relative="1" as="geometry">
            <mxPoint as="offset" />
          </mxGeometry>
        </mxCell>
        <mxCell id="STchm8m0HPpIuNh_q-wR-14" value="通过switch依次选择日志实现技术" style="rhombus;whiteSpace=wrap;html=1;" vertex="1" parent="1">
          <mxGeometry x="345" y="180" width="190" height="80" as="geometry" />
        </mxCell>
        <mxCell id="STchm8m0HPpIuNh_q-wR-18" value="缺点：&lt;br&gt;app1，使用jul记录日志，&lt;br&gt;app2，使用log4j记录日志&lt;br&gt;日志格式很难统一，很混乱" style="shape=note;whiteSpace=wrap;html=1;backgroundOutline=1;darkOpacity=0.05;fillColor=#dae8fc;strokeColor=#6c8ebf;" vertex="1" parent="1">
          <mxGeometry x="200" y="-50" width="80" height="130" as="geometry" />
        </mxCell>
        <mxCell id="STchm8m0HPpIuNh_q-wR-20" value="如果使用jcl，那么，需要使用log4j记录日志的时候添加依赖就可以了。使用jul，则去掉log4j依赖" style="shape=note;whiteSpace=wrap;html=1;backgroundOutline=1;darkOpacity=0.05;fillColor=#d5e8d4;strokeColor=#82b366;" vertex="1" parent="1">
          <mxGeometry x="380" y="-60" width="100" height="140" as="geometry" />
        </mxCell>
        <mxCell id="STchm8m0HPpIuNh_q-wR-24" style="edgeStyle=orthogonalEdgeStyle;rounded=0;orthogonalLoop=1;jettySize=auto;html=1;entryX=0.5;entryY=0;entryDx=0;entryDy=0;" edge="1" parent="1" source="STchm8m0HPpIuNh_q-wR-21" target="STchm8m0HPpIuNh_q-wR-22">
          <mxGeometry relative="1" as="geometry" />
        </mxCell>
        <mxCell id="STchm8m0HPpIuNh_q-wR-21" value="slf4j" style="rounded=1;whiteSpace=wrap;html=1;fillColor=#e1d5e7;strokeColor=#9673a6;" vertex="1" parent="1">
          <mxGeometry x="600" y="80" width="80" height="40" as="geometry" />
        </mxCell>
        <mxCell id="STchm8m0HPpIuNh_q-wR-25" style="edgeStyle=orthogonalEdgeStyle;rounded=0;orthogonalLoop=1;jettySize=auto;html=1;" edge="1" parent="1" source="STchm8m0HPpIuNh_q-wR-22" target="STchm8m0HPpIuNh_q-wR-23">
          <mxGeometry relative="1" as="geometry" />
        </mxCell>
        <mxCell id="STchm8m0HPpIuNh_q-wR-22" value="&lt;em style=&quot;color: rgb(51 , 51 , 51) ; font-family: &amp;#34;verdana&amp;#34; , &amp;#34;arial&amp;#34; , , sans-serif ; font-size: small ; font-weight: 700 ; background-color: rgb(255 , 255 , 255)&quot;&gt;slf4j-jdk14-1.7.28.jar&lt;/em&gt;" style="rounded=1;whiteSpace=wrap;html=1;" vertex="1" parent="1">
          <mxGeometry x="600" y="170" width="80" height="40" as="geometry" />
        </mxCell>
        <mxCell id="STchm8m0HPpIuNh_q-wR-31" style="edgeStyle=orthogonalEdgeStyle;rounded=0;orthogonalLoop=1;jettySize=auto;html=1;" edge="1" parent="1" source="STchm8m0HPpIuNh_q-wR-23" target="STchm8m0HPpIuNh_q-wR-30">
          <mxGeometry relative="1" as="geometry" />
        </mxCell>
        <mxCell id="STchm8m0HPpIuNh_q-wR-23" value="jul" style="rounded=1;whiteSpace=wrap;html=1;fillColor=#f8cecc;strokeColor=#b85450;" vertex="1" parent="1">
          <mxGeometry x="600" y="260" width="80" height="40" as="geometry" />
        </mxCell>
        <mxCell id="STchm8m0HPpIuNh_q-wR-26" value="通过绑定器绑定到具体的日志技术" style="shape=note;whiteSpace=wrap;html=1;backgroundOutline=1;darkOpacity=0.05;" vertex="1" parent="1">
          <mxGeometry x="680" y="140" width="80" height="100" as="geometry" />
        </mxCell>
        <mxCell id="STchm8m0HPpIuNh_q-wR-27" value="log日志" style="rounded=1;whiteSpace=wrap;html=1;fillColor=#fff2cc;strokeColor=#d6b656;" vertex="1" parent="1">
          <mxGeometry x="400" y="350" width="80" height="40" as="geometry" />
        </mxCell>
        <mxCell id="STchm8m0HPpIuNh_q-wR-30" value="log日志" style="rounded=1;whiteSpace=wrap;html=1;fillColor=#fff2cc;strokeColor=#d6b656;" vertex="1" parent="1">
          <mxGeometry x="600" y="350" width="80" height="40" as="geometry" />
        </mxCell>
      </root>
    </mxGraphModel>
  </diagram>
</mxfile>
